<svg width="2772" height="801" viewBox="0 0 2772 801" fill="none" xmlns="http://www.w3.org/2000/svg">
<g clip-path="url(#clip0_63_151)">
<path d="M746.54 200.443C726.479 165.778 634.812 74.1103 600.146 54.0484C565.556 34.0295 440.287 0.5 400.089 0.5C359.893 0.5 234.623 34.0295 200.032 54.0484C165.367 74.1103 73.6992 165.777 53.6373 200.443C33.6183 235.032 0.0888672 360.302 0.0888672 400.5C0.0888672 440.696 33.6183 565.966 53.6373 600.557C73.6992 635.222 165.365 726.89 200.032 746.952C234.621 766.971 359.891 800.5 400.089 800.5C440.285 800.5 565.555 766.971 600.146 746.952C634.811 726.89 726.479 635.223 746.54 600.557C766.559 565.968 800.089 440.698 800.089 400.5C800.089 360.304 766.559 235.034 746.54 200.443ZM724.206 587.631C706.372 618.448 618.036 706.783 587.22 724.617C556.488 742.399 435.815 774.694 400.089 774.694C364.361 774.694 243.688 742.399 212.958 724.617C182.141 706.783 93.8059 618.448 75.9719 587.631C58.1895 556.899 25.8953 436.226 25.8953 400.5C25.8953 364.772 58.1895 244.099 75.9719 213.369C93.8059 182.552 182.141 94.217 212.958 76.383C243.69 58.6006 364.362 26.3065 400.089 26.3065C435.817 26.3065 556.49 58.6006 587.22 76.383C618.036 94.217 706.372 182.552 724.206 213.369C741.988 244.101 774.282 364.774 774.282 400.5C774.282 436.228 741.988 556.901 724.206 587.631Z" fill="black"/>
<path d="M203.375 457.114L182.17 476.1C177.159 480.583 179.643 488.867 186.301 489.856L268.134 502.074C272.881 502.777 275.935 507.524 274.595 512.138L261.652 556.505C259.894 562.526 265.497 568.107 271.518 566.349L381.26 533.959C383.193 533.388 385.039 535.014 384.732 536.991L372.843 613.683C372.096 618.496 375.832 622.847 380.688 622.847H419.429C424.307 622.847 428.021 618.496 427.274 613.683L415.385 536.991C415.078 535.014 416.924 533.388 418.857 533.959L528.599 566.349C534.62 568.129 540.223 562.548 538.465 556.505L525.522 512.138C524.182 507.524 527.214 502.777 531.983 502.074L613.816 489.856C620.452 488.867 622.958 480.583 617.947 476.1L596.742 457.114C593.446 454.169 593.204 449.071 596.193 445.819L642.998 394.948C647.635 389.894 644.141 381.741 637.285 381.632L573.976 380.643C569.427 380.577 565.868 376.687 566.175 372.161L568.549 338.232C569.032 331.376 561.165 327.201 555.738 331.42L496.012 378.094C490.365 382.511 482.234 377.787 483.267 370.689L501.594 245.59C502.583 238.844 495.155 234.075 489.442 237.767L456.809 258.841C452.7 261.5 447.185 259.83 445.229 255.347L400.094 152.153L354.958 255.347C353.002 259.83 347.487 261.5 343.378 258.841L310.745 237.767C305.01 234.075 297.605 238.844 298.593 245.59L316.92 370.689C317.953 377.765 309.822 382.511 304.175 378.094L244.449 331.42C239.044 327.201 231.177 331.377 231.639 338.232L234.012 372.161C234.319 376.709 230.76 380.577 226.211 380.643L162.902 381.632C156.046 381.741 152.53 389.894 157.189 394.948L203.994 445.819C206.983 449.071 206.741 454.17 203.445 457.114H203.375Z" fill="black"/>
<path d="M580.85 713.584C610.617 696.357 695.946 611.028 713.173 581.261C730.35 551.577 761.545 435.012 761.545 400.5C761.545 365.99 730.35 249.425 713.173 219.739C695.946 189.972 610.617 104.643 580.85 87.4163C551.166 70.2393 434.601 39.0444 400.089 39.0444C365.579 39.0444 249.014 70.2393 219.328 87.4163C189.561 104.643 104.232 189.972 87.0052 219.739C69.8282 249.423 38.6333 365.988 38.6333 400.5C38.6333 435.01 69.8282 551.575 87.0052 581.261C104.232 611.028 189.561 696.357 219.328 713.584C249.012 730.761 365.577 761.956 400.089 761.956C434.599 761.956 551.164 730.761 580.85 713.584Z" stroke="black" stroke-width="9.65959" stroke-linecap="round" stroke-linejoin="round" stroke-dasharray="4.83 28.98"/>
</g>
<path d="M1055.55 360.056C964.073 360.056 910.287 306.663 910.287 224.61C910.287 142.556 964.073 89.163 1055.55 89.163C1143.88 89.163 1196.88 131.171 1196.88 201.446V208.121H1114.44V201.446C1114.44 171.609 1100.31 159.831 1056.73 159.831C1003.33 159.831 988.807 172.394 988.807 224.61C988.807 276.825 1003.33 289.389 1056.73 289.389C1100.31 289.389 1114.44 277.611 1114.44 247.773V241.099H1196.88V247.773C1196.88 318.048 1143.88 360.056 1055.55 360.056ZM1283.46 356.13H1200.63L1314.09 93.089H1419.7L1533.55 356.13H1448.75L1428.73 307.448H1303.88L1283.46 356.13ZM1347.07 204.195L1331.75 241.099H1401.64L1386.33 204.195L1369.05 159.831H1363.95L1347.07 204.195ZM1615.26 356.13H1541.45V93.089H1619.97L1692.99 191.631L1731.47 252.092H1736.57L1733.04 194.772V93.089H1806.85V356.13H1728.33L1650.59 254.84L1617.22 203.017H1612.12L1615.26 253.269V356.13ZM1897.67 356.13H1814.83L1928.29 93.089H2033.9L2147.75 356.13H2062.95L2042.93 307.448H1918.08L1897.67 356.13ZM1961.27 204.195L1945.96 241.099H2015.84L2000.53 204.195L1983.25 159.831H1978.15L1961.27 204.195ZM2293.06 356.13H2159.97V93.089H2293.06C2379.83 93.089 2434.79 141.379 2434.79 224.61C2434.79 307.841 2379.83 356.13 2293.06 356.13ZM2293.06 159.438H2233.78V289.781H2293.06C2339.78 289.781 2355.88 283.892 2355.88 224.61C2355.88 165.327 2339.78 159.438 2293.06 159.438ZM2521.46 356.13H2438.62L2552.08 93.089H2657.69L2771.54 356.13H2686.74L2666.72 307.448H2541.87L2521.46 356.13ZM2585.06 204.195L2569.75 241.099H2639.63L2624.32 204.195L2607.04 159.831H2601.94L2585.06 204.195ZM1032.39 687.056C953.866 687.056 913.82 652.508 913.82 597.151V594.796H956.221V601.077C956.221 632.485 974.673 648.189 1032.39 648.189C1082.64 648.189 1100.31 637.196 1100.31 612.463C1100.31 589.692 1086.96 581.055 1053.59 574.773L989.199 564.173C944.836 556.321 913.428 535.906 913.428 492.72C913.428 454.638 944.836 416.163 1026.5 416.163C1103.45 416.163 1138.39 454.638 1138.39 506.068V508.424H1096.38V503.32C1096.38 471.127 1077.14 455.03 1022.57 455.03C974.673 455.03 955.829 466.808 955.829 490.364C955.829 513.135 969.177 520.594 1000.19 527.269L1064.19 538.261C1116.79 547.684 1142.71 571.632 1142.71 610.107C1142.71 650.152 1110.12 687.056 1032.39 687.056ZM1215.21 683.13H1172.81V420.089H1301.58C1360.08 420.089 1400.12 453.46 1400.12 511.957C1400.12 570.062 1360.08 603.825 1301.58 603.825H1215.21V683.13ZM1297.65 458.171H1215.21V565.743H1297.65C1337.31 565.743 1357.72 550.824 1357.72 511.957C1357.72 473.09 1337.31 458.171 1297.65 458.171ZM1635.9 683.13H1425.47V420.089H1635.9V458.171H1467.87V531.98H1630.01V569.669H1467.87V645.048H1635.9V683.13ZM1711.32 683.13H1668.92V420.089H1714.47L1832.24 573.988L1866.4 623.063H1869.54L1867.58 575.558V420.089H1909.98V683.13H1864.44L1745.87 529.624L1712.89 483.297H1709.75L1711.32 528.839V683.13ZM2071.29 683.13H1951.54V420.089H2071.29C2152.95 420.089 2204.38 470.342 2204.38 551.61C2204.38 632.878 2152.95 683.13 2071.29 683.13ZM2071.29 458.171H1993.55V645.048H2071.29C2132.14 645.048 2159.62 619.137 2159.62 551.61C2159.62 484.083 2132.14 458.171 2071.29 458.171ZM2346.29 687.056C2267.77 687.056 2227.72 652.508 2227.72 597.151V594.796H2270.12V601.077C2270.12 632.485 2288.58 648.189 2346.29 648.189C2396.54 648.189 2414.21 637.196 2414.21 612.463C2414.21 589.692 2400.86 581.055 2367.49 574.773L2303.1 564.173C2258.74 556.321 2227.33 535.906 2227.33 492.72C2227.33 454.638 2258.74 416.163 2340.4 416.163C2417.35 416.163 2452.29 454.638 2452.29 506.068V508.424H2410.28V503.32C2410.28 471.127 2391.05 455.03 2336.47 455.03C2288.58 455.03 2269.73 466.808 2269.73 490.364C2269.73 513.135 2283.08 520.594 2314.1 527.269L2378.09 538.261C2430.7 547.684 2456.61 571.632 2456.61 610.107C2456.61 650.152 2424.02 687.056 2346.29 687.056Z" fill="black"/>
<path d="M185.517 183.386C183.404 180.415 181.996 177.423 181.292 174.41C180.622 171.371 180.541 168.448 181.046 165.639C181.587 162.805 182.635 160.197 184.189 157.814C185.753 155.371 187.756 153.282 190.196 151.547C192.495 149.913 194.826 148.735 197.188 148.014C199.561 147.232 202.107 146.806 204.826 146.737L205.038 156.809C203.414 156.846 201.802 157.087 200.201 157.532C198.576 157.942 197.038 158.663 195.588 159.694C193.891 160.901 192.624 162.414 191.787 164.233C190.986 166.027 190.739 168.039 191.047 170.27C191.39 172.475 192.429 174.798 194.164 177.238C195.899 179.679 197.752 181.423 199.722 182.472C201.727 183.496 203.727 183.911 205.72 183.719C207.713 183.527 209.558 182.827 211.256 181.62C212.706 180.589 213.862 179.368 214.722 177.958C215.618 176.522 216.3 174.972 216.768 173.309L226.326 176.417C225.528 179.115 224.42 181.526 223.003 183.652C221.561 185.742 219.637 187.642 217.232 189.352C214.791 191.087 212.155 192.322 209.323 193.057C206.502 193.732 203.664 193.859 200.81 193.439C197.991 192.994 195.256 191.956 192.606 190.326C189.992 188.67 187.629 186.357 185.517 183.386Z" fill="black"/>
<path d="M263.367 156.059L263.672 108.266L273.114 104.899L303.589 141.717L293.165 145.434L285.805 136.033L291.848 136.505L268.917 144.681L273.288 141.049L273.545 152.43L263.367 156.059ZM273.206 139.074L268.715 135.976L286.496 129.636L284.978 134.877L269.899 115.651L272.72 114.646L273.206 139.074Z" fill="black"/>
<path d="M347.346 127.907L344.86 83.0616L358.184 82.3232L377.854 117.285L375.8 117.855L373.783 81.4588L383.142 80.9401L385.627 125.786L373.018 126.485L352.55 90.0675L354.605 89.4973L356.705 127.389L347.346 127.907Z" fill="black"/>
<path d="M431.116 124.176L457.289 84.1847L467.048 86.4761L472.687 133.936L461.914 131.407L460.828 119.517L465.649 123.19L441.948 117.626L447.591 116.945L441.636 126.646L431.116 124.176ZM448.593 115.241L446.5 110.202L464.877 114.517L460.76 118.097L458.516 93.7669L461.431 94.4514L448.593 115.241Z" fill="black"/>
<path d="M516.875 146.248L538.908 107.109L553.769 115.475C557.324 117.476 560.083 120.05 562.047 123.197C564.01 126.344 565.004 129.842 565.029 133.69C565.053 137.539 563.906 141.524 561.585 145.646C559.286 149.73 556.475 152.778 553.15 154.791C549.847 156.766 546.341 157.731 542.632 157.685C538.923 157.639 535.291 156.615 531.737 154.614L516.875 146.248ZM530.421 143.416L535.356 146.194C537.436 147.365 539.485 147.97 541.504 148.011C543.582 148.036 545.546 147.423 547.395 146.173C549.244 144.923 550.892 143.012 552.339 140.441C553.808 137.832 554.587 135.431 554.675 133.24C554.784 131.011 554.279 129.033 553.159 127.307C552.098 125.565 550.528 124.108 548.448 122.937L543.513 120.159L530.421 143.416Z" fill="black"/>
<path d="M586.093 185.947L629.535 166.022L636.577 173.156L616.091 216.337L608.317 208.461L613.725 197.818L615.852 203.493L598.749 186.167L603.889 188.594L593.684 193.637L586.093 185.947ZM605.644 187.685L606.553 182.305L619.815 195.74L614.424 196.579L625.474 174.787L627.577 176.918L605.644 187.685Z" fill="black"/>
<path d="M254.229 688.726L273.291 644.697L290.01 651.936C294.008 653.667 297.226 656.095 299.661 659.221C302.096 662.346 303.541 665.952 303.994 670.038C304.448 674.124 303.671 678.485 301.663 683.122C299.674 687.717 297.026 691.268 293.717 693.775C290.427 696.241 286.81 697.655 282.864 698.017C278.918 698.38 274.946 697.696 270.947 695.965L254.229 688.726ZM268.306 684.213L273.858 686.617C276.198 687.63 278.442 688.046 280.591 687.865C282.802 687.66 284.82 686.791 286.645 685.258C288.471 683.725 290.01 681.512 291.262 678.619C292.533 675.684 293.094 673.047 292.944 670.709C292.813 668.329 292.057 666.284 290.675 664.574C289.355 662.841 287.525 661.468 285.185 660.455L279.633 658.051L268.306 684.213Z" fill="black"/>
<path d="M308.774 686.311C309.605 682.506 310.913 679.234 312.699 676.492C314.529 673.76 316.691 671.576 319.185 669.938C321.678 668.3 324.379 667.23 327.289 666.727C330.253 666.189 333.253 666.251 336.287 666.914C339.366 667.587 342.118 668.782 344.543 670.498C346.977 672.169 348.986 674.268 350.569 676.797C352.151 679.326 353.182 682.208 353.661 685.444C354.185 688.691 354.031 692.216 353.2 696.02C352.369 699.824 351.038 703.092 349.207 705.824C347.422 708.565 345.282 710.755 342.789 712.393C340.296 714.03 337.59 715.123 334.67 715.672C331.761 716.175 328.789 716.094 325.755 715.431C322.675 714.758 319.895 713.581 317.416 711.901C314.991 710.185 312.988 708.062 311.405 705.534C309.823 703.005 308.769 700.118 308.245 696.871C307.766 693.635 307.942 690.115 308.774 686.311ZM319.846 688.73C319.312 691.176 319.118 693.364 319.266 695.294C319.459 697.234 319.92 698.925 320.649 700.365C321.378 701.806 322.357 702.969 323.587 703.854C324.817 704.74 326.225 705.356 327.81 705.702C329.395 706.049 330.931 706.076 332.418 705.784C333.905 705.492 335.281 704.844 336.544 703.839C337.808 702.834 338.909 701.485 339.849 699.793C340.833 698.11 341.593 696.046 342.127 693.6C342.662 691.155 342.833 688.962 342.64 687.022C342.492 685.091 342.054 683.406 341.325 681.965C340.596 680.525 339.616 679.362 338.386 678.476C337.156 677.591 335.749 676.975 334.164 676.628C332.579 676.282 331.043 676.254 329.555 676.546C328.068 676.838 326.693 677.486 325.429 678.491C324.166 679.496 323.042 680.84 322.057 682.523C321.118 684.216 320.381 686.285 319.846 688.73Z" fill="black"/>
<path d="M363.479 721.385L365.407 673.445L376.523 673.892L374.987 712.105L396.525 712.971L396.134 722.698L363.479 721.385Z" fill="black"/>
<path d="M410.67 722.427L405.169 674.765L416.221 673.489L420.606 711.481L442.019 709.01L443.135 718.68L410.67 722.427Z" fill="black"/>
<path d="M450.45 718.305L453.862 667.365L464.148 664.385L494.262 705.612L482.909 708.901L475.668 698.402L482.08 699.295L457.102 706.532L461.998 702.942L461.537 715.093L450.45 718.305ZM462.038 700.831L457.45 697.237L476.818 691.626L474.861 697.116L460.025 675.642L463.097 674.752L462.038 700.831Z" fill="black"/>
<path d="M507.114 700.931L485.756 657.968L502.069 649.858C505.099 648.352 508.107 647.581 511.093 647.547C514.057 647.471 516.782 648.161 519.266 649.618C521.73 651.033 523.705 653.235 525.19 656.224C526.656 659.171 527.136 662.064 526.632 664.903C526.17 667.722 524.961 670.29 523.007 672.607L540.674 684.247L529.654 689.725L514.442 678.651L509.647 681.035L517.076 695.978L507.114 700.931ZM505.623 672.94L511.04 670.247C513.074 669.236 514.487 667.964 515.278 666.432C516.07 664.9 515.991 663.179 515.041 661.269C514.092 659.36 512.768 658.258 511.069 657.964C509.369 657.67 507.503 658.029 505.469 659.04L500.052 661.733L505.623 672.94Z" fill="black"/>
<defs>
<clipPath id="clip0_63_151">
<rect width="800" height="800" fill="white" transform="translate(0.0888672 0.5)"/>
</clipPath>
</defs>
</svg>
