<svg width="259" height="21" viewBox="0 0 259 21" fill="none" xmlns="http://www.w3.org/2000/svg">
<path d="M11.6858 20.2526C4.89556 20.2526 0.902987 16.2892 0.902987 10.1983C0.902987 4.10747 4.89556 0.144039 11.6858 0.144039C18.243 0.144039 22.1773 3.26232 22.1773 8.4789V8.97432H16.0573V8.4789C16.0573 6.26404 15.0081 5.38975 11.7733 5.38975C7.80984 5.38975 6.73156 6.32232 6.73156 10.1983C6.73156 14.0743 7.80984 15.0069 11.7733 15.0069C15.0081 15.0069 16.0573 14.1326 16.0573 11.9178V11.4223H22.1773V11.9178C22.1773 17.1343 18.243 20.2526 11.6858 20.2526ZM28.6042 19.9612H22.455L30.8773 0.435467H38.7168L47.1682 19.9612H40.8733L39.387 16.3475H30.1196L28.6042 19.9612ZM33.3253 8.6829L32.1888 11.4223H37.3762L36.2396 8.6829L34.9573 5.38975H34.5785L33.3253 8.6829ZM53.2335 19.9612H47.7547V0.435467H53.5833L59.0038 7.75032L61.8598 12.2383H62.2387L61.9764 7.98347V0.435467H67.4553V19.9612H61.6267L55.8564 12.4423L53.3793 8.59547H53.0004L53.2335 12.3258V19.9612ZM74.1968 19.9612H68.0477L76.47 0.435467H84.3094L92.7608 19.9612H86.466L84.9797 16.3475H75.7122L74.1968 19.9612ZM78.918 8.6829L77.7814 11.4223H82.9688L81.8322 8.6829L80.55 5.38975H80.1711L78.918 8.6829ZM103.547 19.9612H93.6679V0.435467H103.547C109.988 0.435467 114.068 4.02004 114.068 10.1983C114.068 16.3766 109.988 19.9612 103.547 19.9612ZM103.547 5.36061H99.1467V15.036H103.547C107.015 15.036 108.21 14.5989 108.21 10.1983C108.21 5.79775 107.015 5.36061 103.547 5.36061ZM120.501 19.9612H114.352L122.774 0.435467H130.614L139.065 19.9612H132.77L131.284 16.3475H122.016L120.501 19.9612ZM125.222 8.6829L124.086 11.4223H129.273L128.136 8.6829L126.854 5.38975H126.475L125.222 8.6829ZM152.493 20.2526C146.665 20.2526 143.692 17.688 143.692 13.5789V13.404H146.839V13.8703C146.839 16.2018 148.209 17.3675 152.493 17.3675C156.223 17.3675 157.535 16.5515 157.535 14.7155C157.535 13.0252 156.544 12.384 154.067 11.9178L149.287 11.1309C145.994 10.548 143.663 9.03261 143.663 5.8269C143.663 3.00004 145.994 0.144039 152.056 0.144039C157.768 0.144039 160.362 3.00004 160.362 6.81775V6.99261H157.243V6.61375C157.243 4.22404 155.815 3.02918 151.765 3.02918C148.209 3.02918 146.81 3.90347 146.81 5.65204C146.81 7.34232 147.801 7.89604 150.103 8.39147L154.854 9.20747C158.759 9.9069 160.682 11.6846 160.682 14.5406C160.682 17.5132 158.263 20.2526 152.493 20.2526ZM166.064 19.9612H162.917V0.435467H172.476C176.818 0.435467 179.79 2.91261 179.79 7.2549C179.79 11.568 176.818 14.0743 172.476 14.0743H166.064V19.9612ZM172.184 3.26232H166.064V11.2475H172.184C175.128 11.2475 176.643 10.14 176.643 7.2549C176.643 4.36975 175.128 3.26232 172.184 3.26232ZM197.292 19.9612H181.672V0.435467H197.292V3.26232H184.819V8.74118H196.855V11.5389H184.819V17.1343H197.292V19.9612ZM202.891 19.9612H199.744V0.435467H203.124L211.867 11.8595L214.403 15.5023H214.636L214.49 11.976V0.435467H217.638V19.9612H214.257L205.456 8.56632L203.008 5.12747H202.775L202.891 8.50804V19.9612ZM229.611 19.9612H220.723V0.435467H229.611C235.673 0.435467 239.491 4.16575 239.491 10.1983C239.491 16.2309 235.673 19.9612 229.611 19.9612ZM229.611 3.26232H223.841V17.1343H229.611C234.128 17.1343 236.168 15.2109 236.168 10.1983C236.168 5.18575 234.128 3.26232 229.611 3.26232ZM250.025 20.2526C244.196 20.2526 241.224 17.688 241.224 13.5789V13.404H244.371V13.8703C244.371 16.2018 245.741 17.3675 250.025 17.3675C253.755 17.3675 255.067 16.5515 255.067 14.7155C255.067 13.0252 254.076 12.384 251.599 11.9178L246.819 11.1309C243.526 10.548 241.195 9.03261 241.195 5.8269C241.195 3.00004 243.526 0.144039 249.588 0.144039C255.3 0.144039 257.894 3.00004 257.894 6.81775V6.99261H254.775V6.61375C254.775 4.22404 253.347 3.02918 249.296 3.02918C245.741 3.02918 244.342 3.90347 244.342 5.65204C244.342 7.34232 245.333 7.89604 247.635 8.39147L252.386 9.20747C256.291 9.9069 258.214 11.6846 258.214 14.5406C258.214 17.5132 255.795 20.2526 250.025 20.2526Z" fill="black"/>
</svg>
